<?xml version="1.0" encoding="UTF-8" standalone="no"?>
<svg
   xmlns:dc="http://purl.org/dc/elements/1.1/"
   xmlns:cc="http://creativecommons.org/ns#"
   xmlns:rdf="http://www.w3.org/1999/02/22-rdf-syntax-ns#"
   xmlns:svg="http://www.w3.org/2000/svg"
   xmlns="http://www.w3.org/2000/svg"
   xmlns:xlink="http://www.w3.org/1999/xlink"
   xmlns:sodipodi="http://sodipodi.sourceforge.net/DTD/sodipodi-0.dtd"
   xmlns:inkscape="http://www.inkscape.org/namespaces/inkscape"
   height="288pt"
   version="1.1"
   viewBox="0 0 432 288"
   width="432pt"
   id="svg12966"
   sodipodi:docname="performance_comparison.svg"
   inkscape:version="1.0.2 (e86c8708, 2021-01-15)"
   inkscape:export-filename="/Users/john/performance_comparison.png"
   inkscape:export-xdpi="33.330002"
   inkscape:export-ydpi="33.330002">
  <metadata
     id="metadata12970">
    <rdf:RDF>
      <cc:Work
         rdf:about="">
        <dc:format>image/svg+xml</dc:format>
        <dc:type
           rdf:resource="http://purl.org/dc/dcmitype/StillImage" />
      </cc:Work>
    </rdf:RDF>
  </metadata>
  <sodipodi:namedview
     pagecolor="#ffffff"
     bordercolor="#666666"
     borderopacity="1"
     objecttolerance="10"
     gridtolerance="10"
     guidetolerance="10"
     inkscape:pageopacity="0"
     inkscape:pageshadow="2"
     inkscape:window-width="1917"
     inkscape:window-height="890"
     id="namedview12968"
     showgrid="false"
     inkscape:zoom="1.9348958"
     inkscape:cx="271.72005"
     inkscape:cy="233.3459"
     inkscape:window-x="0"
     inkscape:window-y="23"
     inkscape:window-maximized="0"
     inkscape:current-layer="svg12966" />
  <defs
     id="defs12388">
    <style
       type="text/css"
       id="style12386">
*{stroke-linecap:butt;stroke-linejoin:round;}
  </style>
  </defs>
  <g
     id="figure_1">
    <g
       id="patch_1"
       inkscape:export-filename="/Users/john/patch_1.png"
       inkscape:export-xdpi="33.330002"
       inkscape:export-ydpi="33.330002">
      <path
         d="M 0,288 H 432 V 0 H 0 Z"
         style="fill:#ffffff"
         id="path12390" />
    </g>
    <g
       id="axes_1">
      <g
         id="patch_2">
        <path
           d="m 57.05,202.75969 h 154.8 V 14.3 H 57.05 Z"
           style="fill:#ffffff"
           id="path12393" />
      </g>
      <g
         id="patch_3">
        <path
           clip-path="url(#p62502cb5f9)"
           d="M 64.086364,536.11821 H 126.63182 V 88.125695 H 64.086364 Z"
           style="fill:#1f77b4"
           id="path12396" />
      </g>
      <g
         id="patch_4">
        <path
           clip-path="url(#p62502cb5f9)"
           d="m 142.26818,536.11821 h 62.54546 V 48.220127 h -62.54546 z"
           style="fill:#1f77b4"
           id="path12399" />
      </g>
      <g
         id="matplotlib.axis_1">
        <g
           id="xtick_1">
          <g
             id="line2d_1">
            <defs
               id="defs12403">
              <path
                 d="M 0,0 V 3.5"
                 id="mc8f7bc462f"
                 style="stroke:#000000;stroke-width:0.8" />
            </defs>
            <g
               id="g12407">
              <use
                 style="stroke:#000000;stroke-width:0.8"
                 x="95.359093"
                 xlink:href="#mc8f7bc462f"
                 y="202.75969"
                 id="use12405"
                 width="100%"
                 height="100%" />
            </g>
          </g>
          <g
             id="text_1">
            <!-- concatenated -->
            <defs
               id="defs12417">
              <path
                 d="M 48.78125,52.59375 V 44.1875 q -3.8125,2.109375 -7.640625,3.15625 -3.828125,1.046875 -7.734375,1.046875 -8.75,0 -13.59375,-5.546875 -4.828125,-5.53125 -4.828125,-15.546875 0,-10.015625 4.828125,-15.5625 4.84375,-5.53125 13.59375,-5.53125 3.90625,0 7.734375,1.046875 3.828125,1.046875 7.640625,3.15625 v -8.3125 q -3.765625,-1.75 -7.796875,-2.625 -4.015625,-0.890625 -8.5625,-0.890625 -12.359375,0 -19.640625,7.765625 -7.265625,7.765625 -7.265625,20.953125 0,13.375 7.34375,21.03125 Q 20.21875,56 33.015625,56 q 4.140625,0 8.09375,-0.859375 3.953125,-0.84375 7.671875,-2.546875 z"
                 id="DejaVuSans-99" />
              <path
                 d="m 30.609375,48.390625 q -7.21875,0 -11.421875,-5.640625 -4.203125,-5.640625 -4.203125,-15.453125 0,-9.8125 4.171875,-15.453125 4.1875,-5.640625 11.453125,-5.640625 7.1875,0 11.375,5.65625 4.203125,5.671875 4.203125,15.4375 0,9.71875 -4.203125,15.40625 -4.1875,5.6875 -11.375,5.6875 z m 0,7.609375 q 11.71875,0 18.40625,-7.625 6.703125,-7.609375 6.703125,-21.078125 0,-13.421875 -6.703125,-21.078125 -6.6875,-7.640625 -18.40625,-7.640625 -11.765625,0 -18.4375,7.640625 -6.65625,7.65625 -6.65625,21.078125 0,13.46875 6.65625,21.078125 Q 18.84375,56 30.609375,56 Z"
                 id="DejaVuSans-111" />
              <path
                 d="M 54.890625,33.015625 V 0 H 45.90625 v 32.71875 q 0,7.765625 -3.03125,11.609375 -3.03125,3.859375 -9.078125,3.859375 -7.28125,0 -11.484375,-4.640625 -4.203125,-4.625 -4.203125,-12.640625 V 0 h -9.03125 v 54.6875 h 9.03125 v -8.5 q 3.234375,4.9375 7.59375,7.375 4.375,2.4375 10.09375,2.4375 9.421875,0 14.25,-5.828125 4.84375,-5.828125 4.84375,-17.15625 z"
                 id="DejaVuSans-110" />
              <path
                 d="m 34.28125,27.484375 q -10.890625,0 -15.09375,-2.484375 -4.203125,-2.484375 -4.203125,-8.5 0,-4.78125 3.15625,-7.59375 3.15625,-2.796875 8.5625,-2.796875 7.484375,0 12,5.296875 4.515625,5.296875 4.515625,14.078125 v 2 z m 17.921875,3.71875 V 0 H 43.21875 v 8.296875 q -3.078125,-4.96875 -7.671875,-7.34375 -4.59375,-2.375 -11.234375,-2.375 -8.390625,0 -13.359375,4.71875 Q 6,8.015625 6,15.921875 q 0,9.21875 6.171875,13.90625 6.1875,4.6875 18.4375,4.6875 H 43.21875 v 0.890625 q 0,6.203125 -4.078125,9.59375 -4.078125,3.390625 -11.453125,3.390625 -4.6875,0 -9.140625,-1.125 -4.4375,-1.125 -8.53125,-3.375 v 8.3125 q 4.921875,1.90625 9.5625,2.84375 Q 24.21875,56 28.609375,56 q 11.875,0 17.734375,-6.15625 5.859375,-6.140625 5.859375,-18.640625 z"
                 id="DejaVuSans-97" />
              <path
                 d="M 18.3125,70.21875 V 54.6875 h 18.5 v -6.984375 h -18.5 v -29.6875 q 0,-6.6875 1.828125,-8.59375 1.828125,-1.90625 7.453125,-1.90625 H 36.8125 V 0 H 27.59375 Q 17.1875,0 13.234375,3.875 9.28125,7.765625 9.28125,18.015625 v 29.6875 H 2.6875 V 54.6875 h 6.59375 v 15.53125 z"
                 id="DejaVuSans-116" />
              <path
                 d="m 56.203125,29.59375 v -4.390625 h -41.3125 q 0.59375,-9.28125 5.59375,-14.140625 5,-4.859375 13.9375,-4.859375 5.171875,0 10.03125,1.265625 4.859375,1.265625 9.65625,3.8125 v -8.5 q -4.84375,-2.046875 -9.921875,-3.125 -5.078125,-1.078125 -10.296875,-1.078125 -13.09375,0 -20.734375,7.609375 -7.640625,7.625 -7.640625,20.625 0,13.421875 7.25,21.296875 Q 20.015625,56 32.328125,56 q 11.03125,0 17.453125,-7.109375 6.421875,-7.09375 6.421875,-19.296875 z m -8.984375,2.640625 q -0.09375,7.359375 -4.125,11.75 -4.03125,4.40625 -10.671875,4.40625 -7.515625,0 -12.03125,-4.25 -4.515625,-4.25 -5.203125,-11.96875 z"
                 id="DejaVuSans-101" />
              <path
                 d="m 45.40625,46.390625 v 29.59375 h 8.984375 V 0 H 45.40625 v 8.203125 q -2.828125,-4.875 -7.15625,-7.25 -4.3125,-2.375 -10.375,-2.375 -9.90625,0 -16.140625,7.90625 -6.21875,7.921875 -6.21875,20.8125 0,12.890625 6.21875,20.796875 Q 17.96875,56 27.875,56 q 6.0625,0 10.375,-2.375 4.328125,-2.359375 7.15625,-7.234375 z M 14.796875,27.296875 q 0,-9.90625 4.078125,-15.546875 4.078125,-5.640625 11.203125,-5.640625 7.125,0 11.21875,5.640625 4.109375,5.640625 4.109375,15.546875 0,9.90625 -4.109375,15.546875 -4.09375,5.640625 -11.21875,5.640625 -7.125,0 -11.203125,-5.640625 -4.078125,-5.640625 -4.078125,-15.546875 z"
                 id="DejaVuSans-100" />
            </defs>
            <g
               transform="matrix(0.08485281,-0.08485281,-0.08485281,-0.08485281,35.434443,274.36715)"
               id="g12443">
              <use
                 xlink:href="#DejaVuSans-99"
                 id="use12419"
                 x="0"
                 y="0"
                 width="100%"
                 height="100%" />
              <use
                 x="54.980469"
                 xlink:href="#DejaVuSans-111"
                 id="use12421"
                 y="0"
                 width="100%"
                 height="100%" />
              <use
                 x="116.16211"
                 xlink:href="#DejaVuSans-110"
                 id="use12423"
                 y="0"
                 width="100%"
                 height="100%" />
              <use
                 x="179.54102"
                 xlink:href="#DejaVuSans-99"
                 id="use12425"
                 y="0"
                 width="100%"
                 height="100%" />
              <use
                 x="234.52148"
                 xlink:href="#DejaVuSans-97"
                 id="use12427"
                 y="0"
                 width="100%"
                 height="100%" />
              <use
                 x="295.80078"
                 xlink:href="#DejaVuSans-116"
                 id="use12429"
                 y="0"
                 width="100%"
                 height="100%" />
              <use
                 x="335.00977"
                 xlink:href="#DejaVuSans-101"
                 id="use12431"
                 y="0"
                 width="100%"
                 height="100%" />
              <use
                 x="396.5332"
                 xlink:href="#DejaVuSans-110"
                 id="use12433"
                 y="0"
                 width="100%"
                 height="100%" />
              <use
                 x="459.91211"
                 xlink:href="#DejaVuSans-97"
                 id="use12435"
                 y="0"
                 width="100%"
                 height="100%" />
              <use
                 x="521.19141"
                 xlink:href="#DejaVuSans-116"
                 id="use12437"
                 y="0"
                 width="100%"
                 height="100%" />
              <use
                 x="560.40039"
                 xlink:href="#DejaVuSans-101"
                 id="use12439"
                 y="0"
                 width="100%"
                 height="100%" />
              <use
                 x="621.92383"
                 xlink:href="#DejaVuSans-100"
                 id="use12441"
                 y="0"
                 width="100%"
                 height="100%" />
            </g>
          </g>
        </g>
        <g
           id="xtick_2">
          <g
             id="line2d_2">
            <g
               id="g12449">
              <use
                 style="stroke:#000000;stroke-width:0.8"
                 x="173.54091"
                 xlink:href="#mc8f7bc462f"
                 y="202.75969"
                 id="use12447"
                 width="100%"
                 height="100%" />
            </g>
          </g>
          <g
             id="text_2">
            <!-- multichannel -->
            <defs
               id="defs12457">
              <path
                 d="M 52,44.1875 Q 55.375,50.25 60.0625,53.125 64.75,56 71.09375,56 q 8.546875,0 13.1875,-5.984375 4.640625,-5.96875 4.640625,-17 V 0 h -9.03125 v 32.71875 q 0,7.859375 -2.796875,11.65625 -2.78125,3.8125 -8.484375,3.8125 -6.984375,0 -11.046875,-4.640625 -4.046875,-4.625 -4.046875,-12.640625 V 0 h -9.03125 v 32.71875 q 0,7.90625 -2.78125,11.6875 -2.78125,3.78125 -8.59375,3.78125 -6.890625,0 -10.953125,-4.65625 -4.046875,-4.65625 -4.046875,-12.625 V 0 h -9.03125 v 54.6875 h 9.03125 v -8.5 q 3.078125,5.03125 7.375,7.421875 Q 29.78125,56 35.6875,56 41.65625,56 45.828125,52.96875 50,49.953125 52,44.1875 Z"
                 id="DejaVuSans-109" />
              <path
                 d="M 8.5,21.578125 V 54.6875 h 8.984375 V 21.921875 q 0,-7.765625 3.015625,-11.65625 3.03125,-3.875 9.09375,-3.875 7.265625,0 11.484375,4.640625 4.234375,4.640625 4.234375,12.65625 v 31 h 8.984375 V 0 H 45.3125 V 8.40625 Q 42.046875,3.421875 37.71875,1 33.40625,-1.421875 27.6875,-1.421875 18.265625,-1.421875 13.375,4.4375 8.5,10.296875 8.5,21.578125 Z M 31.109375,56 Z"
                 id="DejaVuSans-117" />
              <path
                 d="M 9.421875,75.984375 H 18.40625 V 0 H 9.421875 Z"
                 id="DejaVuSans-108" />
              <path
                 d="M 9.421875,54.6875 H 18.40625 V 0 H 9.421875 Z m 0,21.296875 H 18.40625 V 64.59375 H 9.421875 Z"
                 id="DejaVuSans-105" />
              <path
                 d="M 54.890625,33.015625 V 0 H 45.90625 v 32.71875 q 0,7.765625 -3.03125,11.609375 -3.03125,3.859375 -9.078125,3.859375 -7.28125,0 -11.484375,-4.640625 -4.203125,-4.625 -4.203125,-12.640625 V 0 h -9.03125 v 75.984375 h 9.03125 V 46.1875 q 3.234375,4.9375 7.59375,7.375 4.375,2.4375 10.09375,2.4375 9.421875,0 14.25,-5.828125 4.84375,-5.828125 4.84375,-17.15625 z"
                 id="DejaVuSans-104" />
            </defs>
            <g
               transform="matrix(0.08485281,-0.08485281,-0.08485281,-0.08485281,116.51584,271.46757)"
               id="g12483">
              <use
                 xlink:href="#DejaVuSans-109"
                 id="use12459"
                 x="0"
                 y="0"
                 width="100%"
                 height="100%" />
              <use
                 x="97.412109"
                 xlink:href="#DejaVuSans-117"
                 id="use12461"
                 y="0"
                 width="100%"
                 height="100%" />
              <use
                 x="160.79102"
                 xlink:href="#DejaVuSans-108"
                 id="use12463"
                 y="0"
                 width="100%"
                 height="100%" />
              <use
                 x="188.57422"
                 xlink:href="#DejaVuSans-116"
                 id="use12465"
                 y="0"
                 width="100%"
                 height="100%" />
              <use
                 x="227.7832"
                 xlink:href="#DejaVuSans-105"
                 id="use12467"
                 y="0"
                 width="100%"
                 height="100%" />
              <use
                 x="255.56641"
                 xlink:href="#DejaVuSans-99"
                 id="use12469"
                 y="0"
                 width="100%"
                 height="100%" />
              <use
                 x="310.54688"
                 xlink:href="#DejaVuSans-104"
                 id="use12471"
                 y="0"
                 width="100%"
                 height="100%" />
              <use
                 x="373.92578"
                 xlink:href="#DejaVuSans-97"
                 id="use12473"
                 y="0"
                 width="100%"
                 height="100%" />
              <use
                 x="435.20508"
                 xlink:href="#DejaVuSans-110"
                 id="use12475"
                 y="0"
                 width="100%"
                 height="100%" />
              <use
                 x="498.58398"
                 xlink:href="#DejaVuSans-110"
                 id="use12477"
                 y="0"
                 width="100%"
                 height="100%" />
              <use
                 x="561.96289"
                 xlink:href="#DejaVuSans-101"
                 id="use12479"
                 y="0"
                 width="100%"
                 height="100%" />
              <use
                 x="623.48633"
                 xlink:href="#DejaVuSans-108"
                 id="use12481"
                 y="0"
                 width="100%"
                 height="100%" />
            </g>
          </g>
        </g>
      </g>
      <g
         id="matplotlib.axis_2">
        <g
           id="ytick_1">
          <g
             id="line2d_3">
            <defs
               id="defs12489">
              <path
                 d="M 0,0 H -3.5"
                 id="m8b8e3b6302"
                 style="stroke:#000000;stroke-width:0.8" />
            </defs>
            <g
               id="g12493">
              <use
                 style="stroke:#000000;stroke-width:0.8"
                 x="57.049999"
                 xlink:href="#m8b8e3b6302"
                 y="202.75969"
                 id="use12491"
                 width="100%"
                 height="100%" />
            </g>
          </g>
          <g
             id="text_3">
            <!-- 0.60 -->
            <defs
               id="defs12499">
              <path
                 d="m 31.78125,66.40625 q -7.609375,0 -11.453125,-7.5 Q 16.5,51.421875 16.5,36.375 q 0,-14.984375 3.828125,-22.484375 3.84375,-7.5 11.453125,-7.5 7.671875,0 11.5,7.5 3.84375,7.5 3.84375,22.484375 0,15.046875 -3.84375,22.53125 -3.828125,7.5 -11.5,7.5 z m 0,7.8125 q 12.265625,0 18.734375,-9.703125 6.46875,-9.6875 6.46875,-28.140625 0,-18.40625 -6.46875,-28.109375 -6.46875,-9.6875 -18.734375,-9.6875 -12.25,0 -18.71875,9.6875 Q 6.59375,17.96875 6.59375,36.375 q 0,18.453125 6.46875,28.140625 6.46875,9.703125 18.71875,9.703125 z"
                 id="DejaVuSans-48" />
              <path
                 d="M 10.6875,12.40625 H 21 V 0 H 10.6875 Z"
                 id="DejaVuSans-46" />
              <path
                 d="m 33.015625,40.375 q -6.640625,0 -10.53125,-4.546875 -3.875,-4.53125 -3.875,-12.4375 0,-7.859375 3.875,-12.4375 3.890625,-4.5625 10.53125,-4.5625 6.640625,0 10.515625,4.5625 3.875,4.578125 3.875,12.4375 0,7.90625 -3.875,12.4375 Q 39.65625,40.375 33.015625,40.375 Z M 52.59375,71.296875 V 62.3125 q -3.71875,1.75 -7.5,2.671875 -3.78125,0.9375 -7.5,0.9375 -9.765625,0 -14.921875,-6.59375 -5.140625,-6.59375 -5.875,-19.921875 2.875,4.25 7.21875,6.515625 4.359375,2.265625 9.578125,2.265625 10.984375,0 17.359375,-6.671875 6.375,-6.65625 6.375,-18.125 0,-11.234375 -6.640625,-18.03125 -6.640625,-6.78125 -17.671875,-6.78125 -12.65625,0 -19.34375,9.6875 -6.6875,9.703125 -6.6875,28.109375 0,17.28125 8.203125,27.5625 8.203125,10.28125 22.015625,10.28125 3.71875,0 7.5,-0.734375 3.78125,-0.734375 7.890625,-2.1875 z"
                 id="DejaVuSans-54" />
            </defs>
            <g
               transform="matrix(0.1,0,0,-0.1,27.784375,206.55891)"
               id="g12509">
              <use
                 xlink:href="#DejaVuSans-48"
                 id="use12501"
                 x="0"
                 y="0"
                 width="100%"
                 height="100%" />
              <use
                 x="63.623047"
                 xlink:href="#DejaVuSans-46"
                 id="use12503"
                 y="0"
                 width="100%"
                 height="100%" />
              <use
                 x="95.410156"
                 xlink:href="#DejaVuSans-54"
                 id="use12505"
                 y="0"
                 width="100%"
                 height="100%" />
              <use
                 x="159.0332"
                 xlink:href="#DejaVuSans-48"
                 id="use12507"
                 y="0"
                 width="100%"
                 height="100%" />
            </g>
          </g>
        </g>
        <g
           id="ytick_2">
          <g
             id="line2d_4">
            <g
               id="g12515">
              <use
                 style="stroke:#000000;stroke-width:0.8"
                 x="57.049999"
                 xlink:href="#m8b8e3b6302"
                 y="174.97981"
                 id="use12513"
                 width="100%"
                 height="100%" />
            </g>
          </g>
          <g
             id="text_4">
            <!-- 0.65 -->
            <defs
               id="defs12519">
              <path
                 d="m 10.796875,72.90625 h 38.71875 v -8.3125 h -29.6875 V 46.734375 q 2.140625,0.734375 4.28125,1.09375 2.15625,0.359375 4.3125,0.359375 Q 40.625,48.1875 47.75,41.5 54.890625,34.8125 54.890625,23.390625 54.890625,11.625 47.5625,5.09375 40.234375,-1.421875 26.90625,-1.421875 q -4.59375,0 -9.359375,0.78125 -4.75,0.78125 -9.828125,2.34375 V 11.625 q 4.390625,-2.390625 9.078125,-3.5625 4.6875,-1.171875 9.90625,-1.171875 8.453125,0 13.375,4.4375 4.9375,4.4375 4.9375,12.0625 0,7.609375 -4.9375,12.046875 -4.921875,4.453125 -13.375,4.453125 -3.953125,0 -7.890625,-0.875 -3.921875,-0.875 -8.015625,-2.734375 z"
                 id="DejaVuSans-53" />
            </defs>
            <g
               transform="matrix(0.1,0,0,-0.1,27.784375,178.77903)"
               id="g12529">
              <use
                 xlink:href="#DejaVuSans-48"
                 id="use12521"
                 x="0"
                 y="0"
                 width="100%"
                 height="100%" />
              <use
                 x="63.623047"
                 xlink:href="#DejaVuSans-46"
                 id="use12523"
                 y="0"
                 width="100%"
                 height="100%" />
              <use
                 x="95.410156"
                 xlink:href="#DejaVuSans-54"
                 id="use12525"
                 y="0"
                 width="100%"
                 height="100%" />
              <use
                 x="159.0332"
                 xlink:href="#DejaVuSans-53"
                 id="use12527"
                 y="0"
                 width="100%"
                 height="100%" />
            </g>
          </g>
        </g>
        <g
           id="ytick_3">
          <g
             id="line2d_5">
            <g
               id="g12535">
              <use
                 style="stroke:#000000;stroke-width:0.8"
                 x="57.049999"
                 xlink:href="#m8b8e3b6302"
                 y="147.19994"
                 id="use12533"
                 width="100%"
                 height="100%" />
            </g>
          </g>
          <g
             id="text_5">
            <!-- 0.70 -->
            <defs
               id="defs12539">
              <path
                 d="m 8.203125,72.90625 h 46.875 V 68.703125 L 28.609375,0 H 18.3125 L 43.21875,64.59375 H 8.203125 Z"
                 id="DejaVuSans-55" />
            </defs>
            <g
               transform="matrix(0.1,0,0,-0.1,27.784375,150.99916)"
               id="g12549">
              <use
                 xlink:href="#DejaVuSans-48"
                 id="use12541"
                 x="0"
                 y="0"
                 width="100%"
                 height="100%" />
              <use
                 x="63.623047"
                 xlink:href="#DejaVuSans-46"
                 id="use12543"
                 y="0"
                 width="100%"
                 height="100%" />
              <use
                 x="95.410156"
                 xlink:href="#DejaVuSans-55"
                 id="use12545"
                 y="0"
                 width="100%"
                 height="100%" />
              <use
                 x="159.0332"
                 xlink:href="#DejaVuSans-48"
                 id="use12547"
                 y="0"
                 width="100%"
                 height="100%" />
            </g>
          </g>
        </g>
        <g
           id="ytick_4">
          <g
             id="line2d_6">
            <g
               id="g12555">
              <use
                 style="stroke:#000000;stroke-width:0.8"
                 x="57.049999"
                 xlink:href="#m8b8e3b6302"
                 y="119.42006"
                 id="use12553"
                 width="100%"
                 height="100%" />
            </g>
          </g>
          <g
             id="text_6">
            <!-- 0.75 -->
            <g
               transform="matrix(0.1,0,0,-0.1,27.784375,123.21928)"
               id="g12566">
              <use
                 xlink:href="#DejaVuSans-48"
                 id="use12558"
                 x="0"
                 y="0"
                 width="100%"
                 height="100%" />
              <use
                 x="63.623047"
                 xlink:href="#DejaVuSans-46"
                 id="use12560"
                 y="0"
                 width="100%"
                 height="100%" />
              <use
                 x="95.410156"
                 xlink:href="#DejaVuSans-55"
                 id="use12562"
                 y="0"
                 width="100%"
                 height="100%" />
              <use
                 x="159.0332"
                 xlink:href="#DejaVuSans-53"
                 id="use12564"
                 y="0"
                 width="100%"
                 height="100%" />
            </g>
          </g>
        </g>
        <g
           id="ytick_5">
          <g
             id="line2d_7">
            <g
               id="g12572">
              <use
                 style="stroke:#000000;stroke-width:0.8"
                 x="57.049999"
                 xlink:href="#m8b8e3b6302"
                 y="91.640182"
                 id="use12570"
                 width="100%"
                 height="100%" />
            </g>
          </g>
          <g
             id="text_7">
            <!-- 0.80 -->
            <defs
               id="defs12576">
              <path
                 d="m 31.78125,34.625 q -7.03125,0 -11.0625,-3.765625 -4.015625,-3.765625 -4.015625,-10.34375 0,-6.59375 4.015625,-10.359375 4.03125,-3.765625 11.0625,-3.765625 7.03125,0 11.078125,3.78125 4.0625,3.796875 4.0625,10.34375 0,6.578125 -4.03125,10.34375 Q 38.875,34.625 31.78125,34.625 Z m -9.859375,4.1875 Q 15.578125,40.375 12.03125,44.71875 8.5,49.078125 8.5,55.328125 q 0,8.734375 6.21875,13.8125 6.234375,5.078125 17.0625,5.078125 10.890625,0 17.09375,-5.078125 6.203125,-5.078125 6.203125,-13.8125 0,-6.25 -3.546875,-10.609375 Q 48,40.375 41.703125,38.8125 q 7.125,-1.65625 11.09375,-6.5 3.984375,-4.828125 3.984375,-11.796875 0,-10.609375 -6.46875,-16.28125 -6.46875,-5.65625 -18.53125,-5.65625 -12.046875,0 -18.53125,5.65625 -6.46875,5.671875 -6.46875,16.28125 0,6.96875 4,11.796875 4.015625,4.84375 11.140625,6.5 z M 18.3125,54.390625 q 0,-5.65625 3.53125,-8.828125 3.546875,-3.171875 9.9375,-3.171875 6.359375,0 9.9375,3.171875 3.59375,3.171875 3.59375,8.828125 0,5.671875 -3.59375,8.84375 -3.578125,3.171875 -9.9375,3.171875 -6.390625,0 -9.9375,-3.171875 Q 18.3125,60.0625 18.3125,54.390625 Z"
                 id="DejaVuSans-56" />
            </defs>
            <g
               transform="matrix(0.1,0,0,-0.1,27.784375,95.439404)"
               id="g12586">
              <use
                 xlink:href="#DejaVuSans-48"
                 id="use12578"
                 x="0"
                 y="0"
                 width="100%"
                 height="100%" />
              <use
                 x="63.623047"
                 xlink:href="#DejaVuSans-46"
                 id="use12580"
                 y="0"
                 width="100%"
                 height="100%" />
              <use
                 x="95.410156"
                 xlink:href="#DejaVuSans-56"
                 id="use12582"
                 y="0"
                 width="100%"
                 height="100%" />
              <use
                 x="159.0332"
                 xlink:href="#DejaVuSans-48"
                 id="use12584"
                 y="0"
                 width="100%"
                 height="100%" />
            </g>
          </g>
        </g>
        <g
           id="ytick_6">
          <g
             id="line2d_8">
            <g
               id="g12592">
              <use
                 style="stroke:#000000;stroke-width:0.8"
                 x="57.049999"
                 xlink:href="#m8b8e3b6302"
                 y="63.86031"
                 id="use12590"
                 width="100%"
                 height="100%" />
            </g>
          </g>
          <g
             id="text_8">
            <!-- 0.85 -->
            <g
               transform="matrix(0.1,0,0,-0.1,27.784375,67.659528)"
               id="g12603">
              <use
                 xlink:href="#DejaVuSans-48"
                 id="use12595"
                 x="0"
                 y="0"
                 width="100%"
                 height="100%" />
              <use
                 x="63.623047"
                 xlink:href="#DejaVuSans-46"
                 id="use12597"
                 y="0"
                 width="100%"
                 height="100%" />
              <use
                 x="95.410156"
                 xlink:href="#DejaVuSans-56"
                 id="use12599"
                 y="0"
                 width="100%"
                 height="100%" />
              <use
                 x="159.0332"
                 xlink:href="#DejaVuSans-53"
                 id="use12601"
                 y="0"
                 width="100%"
                 height="100%" />
            </g>
          </g>
        </g>
        <g
           id="ytick_7">
          <g
             id="line2d_9">
            <g
               id="g12609">
              <use
                 style="stroke:#000000;stroke-width:0.8"
                 x="57.049999"
                 xlink:href="#m8b8e3b6302"
                 y="36.080433"
                 id="use12607"
                 width="100%"
                 height="100%" />
            </g>
          </g>
          <g
             id="text_9">
            <!-- 0.90 -->
            <defs
               id="defs12613">
              <path
                 d="M 10.984375,1.515625 V 10.5 Q 14.703125,8.734375 18.5,7.8125 q 3.8125,-0.921875 7.484375,-0.921875 9.765625,0 14.90625,6.5625 5.15625,6.5625 5.890625,19.953125 -2.828125,-4.203125 -7.1875,-6.453125 -4.34375,-2.25 -9.609375,-2.25 -10.9375,0 -17.3125,6.609375 -6.375,6.625 -6.375,18.109375 0,11.21875 6.640625,18 6.640625,6.796875 17.671875,6.796875 12.65625,0 19.3125,-9.703125 6.671875,-9.6875 6.671875,-28.140625 0,-17.234375 -8.1875,-27.515625 -8.171875,-10.28125 -21.984375,-10.28125 -3.71875,0 -7.53125,0.734375 -3.796875,0.734375 -7.90625,2.203125 z m 19.625,30.90625 q 6.640625,0 10.515625,4.53125 3.890625,4.546875 3.890625,12.46875 0,7.859375 -3.890625,12.421875 -3.875,4.5625 -10.515625,4.5625 -6.640625,0 -10.515625,-4.5625 -3.875,-4.5625 -3.875,-12.421875 0,-7.921875 3.875,-12.46875 3.875,-4.53125 10.515625,-4.53125 z"
                 id="DejaVuSans-57" />
            </defs>
            <g
               transform="matrix(0.1,0,0,-0.1,27.784375,39.879652)"
               id="g12623">
              <use
                 xlink:href="#DejaVuSans-48"
                 id="use12615"
                 x="0"
                 y="0"
                 width="100%"
                 height="100%" />
              <use
                 x="63.623047"
                 xlink:href="#DejaVuSans-46"
                 id="use12617"
                 y="0"
                 width="100%"
                 height="100%" />
              <use
                 x="95.410156"
                 xlink:href="#DejaVuSans-57"
                 id="use12619"
                 y="0"
                 width="100%"
                 height="100%" />
              <use
                 x="159.0332"
                 xlink:href="#DejaVuSans-48"
                 id="use12621"
                 y="0"
                 width="100%"
                 height="100%" />
            </g>
          </g>
        </g>
        <g
           id="text_10">
          <!-- balanced accuracy -->
          <defs
             id="defs12631">
            <path
               d="m 48.6875,27.296875 q 0,9.90625 -4.078125,15.546875 -4.078125,5.640625 -11.203125,5.640625 -7.140625,0 -11.21875,-5.640625 -4.078125,-5.640625 -4.078125,-15.546875 0,-9.90625 4.078125,-15.546875 4.078125,-5.640625 11.21875,-5.640625 7.125,0 11.203125,5.640625 4.078125,5.640625 4.078125,15.546875 z m -30.578125,19.09375 q 2.84375,4.875 7.15625,7.234375 Q 29.59375,56 35.59375,56 q 9.96875,0 16.1875,-7.90625 6.234375,-7.90625 6.234375,-20.796875 0,-12.890625 -6.234375,-20.8125 -6.21875,-7.90625 -16.1875,-7.90625 -6,0 -10.328125,2.375 -4.3125,2.375 -7.15625,7.25 V 0 h -9.03125 v 75.984375 h 9.03125 z"
               id="DejaVuSans-98" />
            <path
               id="DejaVuSans-32"
               d="" />
            <path
               d="m 41.109375,46.296875 q -1.515625,0.875 -3.296875,1.28125 Q 36.03125,48 33.890625,48 26.265625,48 22.1875,43.046875 18.109375,38.09375 18.109375,28.8125 V 0 h -9.03125 v 54.6875 h 9.03125 v -8.5 q 2.84375,4.984375 7.375,7.390625 Q 30.03125,56 36.53125,56 q 0.921875,0 2.046875,-0.125 1.125,-0.109375 2.484375,-0.359375 z"
               id="DejaVuSans-114" />
            <path
               d="M 32.171875,-5.078125 Q 28.375,-14.84375 24.75,-17.8125 q -3.609375,-2.984375 -9.65625,-2.984375 h -7.1875 v 7.515625 h 5.28125 q 3.703125,0 5.75,1.765625 2.0625,1.75 4.546875,8.296875 L 25.09375,0.875 2.984375,54.6875 H 12.5 L 29.59375,11.921875 46.6875,54.6875 h 9.515625 z"
               id="DejaVuSans-121" />
          </defs>
          <g
             transform="matrix(0,-0.12,-0.12,0,21.28875,164.94016)"
             id="g12667">
            <use
               xlink:href="#DejaVuSans-98"
               id="use12633"
               x="0"
               y="0"
               width="100%"
               height="100%" />
            <use
               x="63.476562"
               xlink:href="#DejaVuSans-97"
               id="use12635"
               y="0"
               width="100%"
               height="100%" />
            <use
               x="124.75586"
               xlink:href="#DejaVuSans-108"
               id="use12637"
               y="0"
               width="100%"
               height="100%" />
            <use
               x="152.53906"
               xlink:href="#DejaVuSans-97"
               id="use12639"
               y="0"
               width="100%"
               height="100%" />
            <use
               x="213.81836"
               xlink:href="#DejaVuSans-110"
               id="use12641"
               y="0"
               width="100%"
               height="100%" />
            <use
               x="277.19727"
               xlink:href="#DejaVuSans-99"
               id="use12643"
               y="0"
               width="100%"
               height="100%" />
            <use
               x="332.17773"
               xlink:href="#DejaVuSans-101"
               id="use12645"
               y="0"
               width="100%"
               height="100%" />
            <use
               x="393.70117"
               xlink:href="#DejaVuSans-100"
               id="use12647"
               y="0"
               width="100%"
               height="100%" />
            <use
               x="457.17773"
               xlink:href="#DejaVuSans-32"
               id="use12649"
               y="0"
               width="100%"
               height="100%" />
            <use
               x="488.96484"
               xlink:href="#DejaVuSans-97"
               id="use12651"
               y="0"
               width="100%"
               height="100%" />
            <use
               x="550.24414"
               xlink:href="#DejaVuSans-99"
               id="use12653"
               y="0"
               width="100%"
               height="100%" />
            <use
               x="605.22461"
               xlink:href="#DejaVuSans-99"
               id="use12655"
               y="0"
               width="100%"
               height="100%" />
            <use
               x="660.20508"
               xlink:href="#DejaVuSans-117"
               id="use12657"
               y="0"
               width="100%"
               height="100%" />
            <use
               x="723.58398"
               xlink:href="#DejaVuSans-114"
               id="use12659"
               y="0"
               width="100%"
               height="100%" />
            <use
               x="764.69727"
               xlink:href="#DejaVuSans-97"
               id="use12661"
               y="0"
               width="100%"
               height="100%" />
            <use
               x="825.97656"
               xlink:href="#DejaVuSans-99"
               id="use12663"
               y="0"
               width="100%"
               height="100%" />
            <use
               x="880.95703"
               xlink:href="#DejaVuSans-121"
               id="use12665"
               y="0"
               width="100%"
               height="100%" />
          </g>
        </g>
      </g>
      <g
         id="LineCollection_1">
        <path
           clip-path="url(#p62502cb5f9)"
           d="M 95.359091,96.569888 V 79.681502"
           style="fill:none;stroke:#000000;stroke-width:1.5"
           id="path12671" />
        <path
           clip-path="url(#p62502cb5f9)"
           d="M 173.54091,57.291767 V 39.148486"
           style="fill:none;stroke:#000000;stroke-width:1.5"
           id="path12673" />
      </g>
      <g
         id="line2d_10">
        <defs
           id="defs12677">
          <path
             d="M 10,0 H -10"
             id="md32d729f67"
             style="stroke:#000000" />
        </defs>
        <g
           clip-path="url(#p62502cb5f9)"
           id="g12683">
          <use
             style="stroke:#000000"
             x="95.359093"
             xlink:href="#md32d729f67"
             y="96.569885"
             id="use12679"
             width="100%"
             height="100%" />
          <use
             style="stroke:#000000"
             x="173.54091"
             xlink:href="#md32d729f67"
             y="57.291767"
             id="use12681"
             width="100%"
             height="100%" />
        </g>
      </g>
      <g
         id="line2d_11">
        <g
           clip-path="url(#p62502cb5f9)"
           id="g12690">
          <use
             style="stroke:#000000"
             x="95.359093"
             xlink:href="#md32d729f67"
             y="79.681503"
             id="use12686"
             width="100%"
             height="100%" />
          <use
             style="stroke:#000000"
             x="173.54091"
             xlink:href="#md32d729f67"
             y="39.148487"
             id="use12688"
             width="100%"
             height="100%" />
        </g>
      </g>
      <g
         id="patch_5">
        <path
           d="M 57.05,202.75969 V 14.3"
           style="fill:none;stroke:#000000;stroke-width:0.8;stroke-linecap:square;stroke-linejoin:miter"
           id="path12693" />
      </g>
      <g
         id="patch_6">
        <path
           d="M 211.85,202.75969 V 14.3"
           style="fill:none;stroke:#000000;stroke-width:0.8;stroke-linecap:square;stroke-linejoin:miter"
           id="path12696" />
      </g>
      <g
         id="patch_7">
        <path
           d="m 57.05,202.75969 h 154.8"
           style="fill:none;stroke:#000000;stroke-width:0.8;stroke-linecap:square;stroke-linejoin:miter"
           id="path12699" />
      </g>
      <g
         id="patch_8">
        <path
           d="m 57.05,14.3 h 154.8"
           style="fill:none;stroke:#000000;stroke-width:0.8;stroke-linecap:square;stroke-linejoin:miter"
           id="path12702" />
      </g>
    </g>
  </g>
  <defs
     id="defs12964">
    <clipPath
       id="p62502cb5f9">
      <rect
         height="188.459691"
         width="154.8"
         x="57.05"
         y="14.3"
         id="rect12958" />
    </clipPath>
    <clipPath
       id="p85f89e51ce">
      <rect
         height="188.459691"
         width="154.8"
         x="262.9"
         y="14.3"
         id="rect12961" />
    </clipPath>
  </defs>
</svg>
