<?xml version="1.0" encoding="UTF-8" standalone="no"?>
<svg
   xmlns:dc="http://purl.org/dc/elements/1.1/"
   xmlns:cc="http://creativecommons.org/ns#"
   xmlns:rdf="http://www.w3.org/1999/02/22-rdf-syntax-ns#"
   xmlns:svg="http://www.w3.org/2000/svg"
   xmlns="http://www.w3.org/2000/svg"
   xmlns:xlink="http://www.w3.org/1999/xlink"
   xmlns:sodipodi="http://sodipodi.sourceforge.net/DTD/sodipodi-0.dtd"
   xmlns:inkscape="http://www.inkscape.org/namespaces/inkscape"
   height="120pt"
   version="1.1"
   viewBox="0 0 170 120"
   width="170pt"
   id="svg39587"
   sodipodi:docname="performance_comparison.svg"
   inkscape:version="1.0.2 (e86c8708, 2021-01-15)">
  <metadata
     id="metadata39591">
    <rdf:RDF>
      <cc:Work
         rdf:about="">
        <dc:format>image/svg+xml</dc:format>
        <dc:type
           rdf:resource="http://purl.org/dc/dcmitype/StillImage" />
        <dc:title></dc:title>
      </cc:Work>
    </rdf:RDF>
  </metadata>
  <sodipodi:namedview
     pagecolor="#ffffff"
     bordercolor="#666666"
     borderopacity="1"
     objecttolerance="10"
     gridtolerance="10"
     guidetolerance="10"
     inkscape:pageopacity="0"
     inkscape:pageshadow="2"
     inkscape:window-width="1845"
     inkscape:window-height="1022"
     id="namedview39589"
     showgrid="false"
     inkscape:zoom="2.1215278"
     inkscape:cx="288"
     inkscape:cy="192"
     inkscape:window-x="59"
     inkscape:window-y="36"
     inkscape:window-maximized="0"
     inkscape:current-layer="svg39587" />
  <defs
     id="defs39199">
    <style
       type="text/css"
       id="style39197">
*{stroke-linecap:butt;stroke-linejoin:round;}
  </style>
  </defs>
  <g
     id="figure_1"
     transform="matrix(0.33306056,0,0,0.33306056,14.494272,8.4844519)">
    <g
       id="patch_1">
      <path
         d="M 0,288 H 432 V 0 H 0 Z"
         style="fill:#ffffff"
         id="path39201" />
    </g>
    <g
       id="axes_1">
      <g
         id="patch_2">
        <path
           d="M 54,252 H 388.8 V 34.56 H 54 Z"
           style="fill:#ffffff"
           id="path39204" />
      </g>
      <g
         id="patch_3">
        <path
           clip-path="url(#p0c4ea28e98)"
           d="M 69.218182,587.10282 H 156.17922 V 144.7671 H 69.218182 Z"
           style="fill:#1f77b4"
           id="path39207" />
      </g>
      <g
         id="patch_4">
        <path
           clip-path="url(#p0c4ea28e98)"
           d="m 177.91948,587.10282 h 86.96104 V 139.40545 h -86.96104 z"
           style="fill:#1f77b4"
           id="path39210" />
      </g>
      <g
         id="patch_5">
        <path
           clip-path="url(#p0c4ea28e98)"
           d="m 286.62078,587.10282 h 86.96104 V 72.38489 h -86.96104 z"
           style="fill:#1f77b4"
           id="path39213" />
      </g>
      <g
         id="matplotlib.axis_1">
        <g
           id="xtick_1">
          <g
             id="line2d_1">
            <defs
               id="defs39217">
              <path
                 d="M 0,0 V 3.5"
                 id="m67a4bb546d"
                 style="stroke:#000000;stroke-width:0.8" />
            </defs>
            <g
               id="g39221">
              <use
                 style="stroke:#000000;stroke-width:0.8"
                 x="112.6987"
                 xlink:href="#m67a4bb546d"
                 y="252"
                 id="use39219"
                 width="100%"
                 height="100%" />
            </g>
          </g>
          <g
             id="text_1">
            <!-- scikit-learn -->
            <defs
               id="defs39235">
              <path
                 d="m 44.28125,53.078125 v -8.5 Q 40.484375,46.53125 36.375,47.5 q -4.09375,0.984375 -8.5,0.984375 -6.6875,0 -10.03125,-2.046875 Q 14.5,44.390625 14.5,40.28125 q 0,-3.125 2.390625,-4.90625 2.390625,-1.78125 9.625,-3.390625 l 3.078125,-0.6875 Q 39.15625,29.25 43.1875,25.515625 47.21875,21.78125 47.21875,15.09375 q 0,-7.625 -6.03125,-12.078125 -6.03125,-4.4375 -16.578125,-4.4375 -4.390625,0 -9.15625,0.859375 Q 10.6875,0.296875 5.421875,2 v 9.28125 q 4.984375,-2.59375 9.8125,-3.890625 4.828125,-1.28125 9.578125,-1.28125 6.34375,0 9.75,2.171875 3.421875,2.171875 3.421875,6.125 0,3.65625 -2.46875,5.609375 -2.453125,1.953125 -10.8125,3.765625 l -3.125,0.734375 q -8.34375,1.75 -12.0625,5.390625 -3.703125,3.640625 -3.703125,9.984375 0,7.71875 5.46875,11.90625 Q 16.75,56 26.8125,56 q 4.96875,0 9.359375,-0.734375 4.40625,-0.71875 8.109375,-2.1875 z"
                 id="DejaVuSans-115" />
              <path
                 d="M 48.78125,52.59375 V 44.1875 q -3.8125,2.109375 -7.640625,3.15625 -3.828125,1.046875 -7.734375,1.046875 -8.75,0 -13.59375,-5.546875 -4.828125,-5.53125 -4.828125,-15.546875 0,-10.015625 4.828125,-15.5625 4.84375,-5.53125 13.59375,-5.53125 3.90625,0 7.734375,1.046875 3.828125,1.046875 7.640625,3.15625 v -8.3125 q -3.765625,-1.75 -7.796875,-2.625 -4.015625,-0.890625 -8.5625,-0.890625 -12.359375,0 -19.640625,7.765625 -7.265625,7.765625 -7.265625,20.953125 0,13.375 7.34375,21.03125 Q 20.21875,56 33.015625,56 q 4.140625,0 8.09375,-0.859375 3.953125,-0.84375 7.671875,-2.546875 z"
                 id="DejaVuSans-99" />
              <path
                 d="M 9.421875,54.6875 H 18.40625 V 0 H 9.421875 Z m 0,21.296875 H 18.40625 V 64.59375 H 9.421875 Z"
                 id="DejaVuSans-105" />
              <path
                 d="m 9.078125,75.984375 h 9.03125 v -44.875 l 26.8125,23.578125 h 11.46875 l -29,-25.578125 L 57.625,0 H 45.90625 L 18.109375,26.703125 V 0 h -9.03125 z"
                 id="DejaVuSans-107" />
              <path
                 d="M 18.3125,70.21875 V 54.6875 h 18.5 v -6.984375 h -18.5 v -29.6875 q 0,-6.6875 1.828125,-8.59375 1.828125,-1.90625 7.453125,-1.90625 H 36.8125 V 0 H 27.59375 Q 17.1875,0 13.234375,3.875 9.28125,7.765625 9.28125,18.015625 v 29.6875 H 2.6875 V 54.6875 h 6.59375 v 15.53125 z"
                 id="DejaVuSans-116" />
              <path
                 d="m 4.890625,31.390625 h 26.3125 v -8 h -26.3125 z"
                 id="DejaVuSans-45" />
              <path
                 d="M 9.421875,75.984375 H 18.40625 V 0 H 9.421875 Z"
                 id="DejaVuSans-108" />
              <path
                 d="m 56.203125,29.59375 v -4.390625 h -41.3125 q 0.59375,-9.28125 5.59375,-14.140625 5,-4.859375 13.9375,-4.859375 5.171875,0 10.03125,1.265625 4.859375,1.265625 9.65625,3.8125 v -8.5 q -4.84375,-2.046875 -9.921875,-3.125 -5.078125,-1.078125 -10.296875,-1.078125 -13.09375,0 -20.734375,7.609375 -7.640625,7.625 -7.640625,20.625 0,13.421875 7.25,21.296875 Q 20.015625,56 32.328125,56 q 11.03125,0 17.453125,-7.109375 6.421875,-7.09375 6.421875,-19.296875 z m -8.984375,2.640625 q -0.09375,7.359375 -4.125,11.75 -4.03125,4.40625 -10.671875,4.40625 -7.515625,0 -12.03125,-4.25 -4.515625,-4.25 -5.203125,-11.96875 z"
                 id="DejaVuSans-101" />
              <path
                 d="m 34.28125,27.484375 q -10.890625,0 -15.09375,-2.484375 -4.203125,-2.484375 -4.203125,-8.5 0,-4.78125 3.15625,-7.59375 3.15625,-2.796875 8.5625,-2.796875 7.484375,0 12,5.296875 4.515625,5.296875 4.515625,14.078125 v 2 z m 17.921875,3.71875 V 0 H 43.21875 v 8.296875 q -3.078125,-4.96875 -7.671875,-7.34375 -4.59375,-2.375 -11.234375,-2.375 -8.390625,0 -13.359375,4.71875 Q 6,8.015625 6,15.921875 q 0,9.21875 6.171875,13.90625 6.1875,4.6875 18.4375,4.6875 H 43.21875 v 0.890625 q 0,6.203125 -4.078125,9.59375 -4.078125,3.390625 -11.453125,3.390625 -4.6875,0 -9.140625,-1.125 -4.4375,-1.125 -8.53125,-3.375 v 8.3125 q 4.921875,1.90625 9.5625,2.84375 Q 24.21875,56 28.609375,56 q 11.875,0 17.734375,-6.15625 5.859375,-6.140625 5.859375,-18.640625 z"
                 id="DejaVuSans-97" />
              <path
                 d="m 41.109375,46.296875 q -1.515625,0.875 -3.296875,1.28125 Q 36.03125,48 33.890625,48 26.265625,48 22.1875,43.046875 18.109375,38.09375 18.109375,28.8125 V 0 h -9.03125 v 54.6875 h 9.03125 v -8.5 q 2.84375,4.984375 7.375,7.390625 Q 30.03125,56 36.53125,56 q 0.921875,0 2.046875,-0.125 1.125,-0.109375 2.484375,-0.359375 z"
                 id="DejaVuSans-114" />
              <path
                 d="M 54.890625,33.015625 V 0 H 45.90625 v 32.71875 q 0,7.765625 -3.03125,11.609375 -3.03125,3.859375 -9.078125,3.859375 -7.28125,0 -11.484375,-4.640625 -4.203125,-4.625 -4.203125,-12.640625 V 0 h -9.03125 v 54.6875 h 9.03125 v -8.5 q 3.234375,4.9375 7.59375,7.375 4.375,2.4375 10.09375,2.4375 9.421875,0 14.25,-5.828125 4.84375,-5.828125 4.84375,-17.15625 z"
                 id="DejaVuSans-110" />
            </defs>
            <g
               transform="matrix(0.1,0,0,-0.1,85.15417,266.59844)"
               id="g39261">
              <use
                 xlink:href="#DejaVuSans-115"
                 id="use39237"
                 x="0"
                 y="0"
                 width="100%"
                 height="100%" />
              <use
                 x="52.099609"
                 xlink:href="#DejaVuSans-99"
                 id="use39239"
                 y="0"
                 width="100%"
                 height="100%" />
              <use
                 x="107.08008"
                 xlink:href="#DejaVuSans-105"
                 id="use39241"
                 y="0"
                 width="100%"
                 height="100%" />
              <use
                 x="134.86328"
                 xlink:href="#DejaVuSans-107"
                 id="use39243"
                 y="0"
                 width="100%"
                 height="100%" />
              <use
                 x="192.77344"
                 xlink:href="#DejaVuSans-105"
                 id="use39245"
                 y="0"
                 width="100%"
                 height="100%" />
              <use
                 x="220.55664"
                 xlink:href="#DejaVuSans-116"
                 id="use39247"
                 y="0"
                 width="100%"
                 height="100%" />
              <use
                 x="259.76562"
                 xlink:href="#DejaVuSans-45"
                 id="use39249"
                 y="0"
                 width="100%"
                 height="100%" />
              <use
                 x="295.84961"
                 xlink:href="#DejaVuSans-108"
                 id="use39251"
                 y="0"
                 width="100%"
                 height="100%" />
              <use
                 x="323.63281"
                 xlink:href="#DejaVuSans-101"
                 id="use39253"
                 y="0"
                 width="100%"
                 height="100%" />
              <use
                 x="385.15625"
                 xlink:href="#DejaVuSans-97"
                 id="use39255"
                 y="0"
                 width="100%"
                 height="100%" />
              <use
                 x="446.43555"
                 xlink:href="#DejaVuSans-114"
                 id="use39257"
                 y="0"
                 width="100%"
                 height="100%" />
              <use
                 x="487.5332"
                 xlink:href="#DejaVuSans-110"
                 id="use39259"
                 y="0"
                 width="100%"
                 height="100%" />
            </g>
          </g>
        </g>
        <g
           id="xtick_2">
          <g
             id="line2d_2">
            <g
               id="g39267">
              <use
                 style="stroke:#000000;stroke-width:0.8"
                 x="221.39999"
                 xlink:href="#m67a4bb546d"
                 y="252"
                 id="use39265"
                 width="100%"
                 height="100%" />
            </g>
          </g>
          <g
             id="text_2">
            <!-- scikit-learn + selection -->
            <defs
               id="defs39273">
              <path
                 id="DejaVuSans-32"
                 d="" />
              <path
                 d="M 46,62.703125 V 35.5 H 73.1875 V 27.203125 H 46 V 0 H 37.796875 V 27.203125 H 10.59375 V 35.5 h 27.203125 v 27.203125 z"
                 id="DejaVuSans-43" />
              <path
                 d="m 30.609375,48.390625 q -7.21875,0 -11.421875,-5.640625 -4.203125,-5.640625 -4.203125,-15.453125 0,-9.8125 4.171875,-15.453125 4.1875,-5.640625 11.453125,-5.640625 7.1875,0 11.375,5.65625 4.203125,5.671875 4.203125,15.4375 0,9.71875 -4.203125,15.40625 -4.1875,5.6875 -11.375,5.6875 z m 0,7.609375 q 11.71875,0 18.40625,-7.625 6.703125,-7.609375 6.703125,-21.078125 0,-13.421875 -6.703125,-21.078125 -6.6875,-7.640625 -18.40625,-7.640625 -11.765625,0 -18.4375,7.640625 -6.65625,7.65625 -6.65625,21.078125 0,13.46875 6.65625,21.078125 Q 18.84375,56 30.609375,56 Z"
                 id="DejaVuSans-111" />
            </defs>
            <g
               transform="matrix(0.1,0,0,-0.1,164.01406,266.59844)"
               id="g39323">
              <use
                 xlink:href="#DejaVuSans-115"
                 id="use39275"
                 x="0"
                 y="0"
                 width="100%"
                 height="100%" />
              <use
                 x="52.099609"
                 xlink:href="#DejaVuSans-99"
                 id="use39277"
                 y="0"
                 width="100%"
                 height="100%" />
              <use
                 x="107.08008"
                 xlink:href="#DejaVuSans-105"
                 id="use39279"
                 y="0"
                 width="100%"
                 height="100%" />
              <use
                 x="134.86328"
                 xlink:href="#DejaVuSans-107"
                 id="use39281"
                 y="0"
                 width="100%"
                 height="100%" />
              <use
                 x="192.77344"
                 xlink:href="#DejaVuSans-105"
                 id="use39283"
                 y="0"
                 width="100%"
                 height="100%" />
              <use
                 x="220.55664"
                 xlink:href="#DejaVuSans-116"
                 id="use39285"
                 y="0"
                 width="100%"
                 height="100%" />
              <use
                 x="259.76562"
                 xlink:href="#DejaVuSans-45"
                 id="use39287"
                 y="0"
                 width="100%"
                 height="100%" />
              <use
                 x="295.84961"
                 xlink:href="#DejaVuSans-108"
                 id="use39289"
                 y="0"
                 width="100%"
                 height="100%" />
              <use
                 x="323.63281"
                 xlink:href="#DejaVuSans-101"
                 id="use39291"
                 y="0"
                 width="100%"
                 height="100%" />
              <use
                 x="385.15625"
                 xlink:href="#DejaVuSans-97"
                 id="use39293"
                 y="0"
                 width="100%"
                 height="100%" />
              <use
                 x="446.43555"
                 xlink:href="#DejaVuSans-114"
                 id="use39295"
                 y="0"
                 width="100%"
                 height="100%" />
              <use
                 x="487.5332"
                 xlink:href="#DejaVuSans-110"
                 id="use39297"
                 y="0"
                 width="100%"
                 height="100%" />
              <use
                 x="550.91211"
                 xlink:href="#DejaVuSans-32"
                 id="use39299"
                 y="0"
                 width="100%"
                 height="100%" />
              <use
                 x="582.69922"
                 xlink:href="#DejaVuSans-43"
                 id="use39301"
                 y="0"
                 width="100%"
                 height="100%" />
              <use
                 x="666.48828"
                 xlink:href="#DejaVuSans-32"
                 id="use39303"
                 y="0"
                 width="100%"
                 height="100%" />
              <use
                 x="698.27539"
                 xlink:href="#DejaVuSans-115"
                 id="use39305"
                 y="0"
                 width="100%"
                 height="100%" />
              <use
                 x="750.375"
                 xlink:href="#DejaVuSans-101"
                 id="use39307"
                 y="0"
                 width="100%"
                 height="100%" />
              <use
                 x="811.89844"
                 xlink:href="#DejaVuSans-108"
                 id="use39309"
                 y="0"
                 width="100%"
                 height="100%" />
              <use
                 x="839.68164"
                 xlink:href="#DejaVuSans-101"
                 id="use39311"
                 y="0"
                 width="100%"
                 height="100%" />
              <use
                 x="901.20508"
                 xlink:href="#DejaVuSans-99"
                 id="use39313"
                 y="0"
                 width="100%"
                 height="100%" />
              <use
                 x="956.18555"
                 xlink:href="#DejaVuSans-116"
                 id="use39315"
                 y="0"
                 width="100%"
                 height="100%" />
              <use
                 x="995.39453"
                 xlink:href="#DejaVuSans-105"
                 id="use39317"
                 y="0"
                 width="100%"
                 height="100%" />
              <use
                 x="1023.1777"
                 xlink:href="#DejaVuSans-111"
                 id="use39319"
                 y="0"
                 width="100%"
                 height="100%" />
              <use
                 x="1084.3594"
                 xlink:href="#DejaVuSans-110"
                 id="use39321"
                 y="0"
                 width="100%"
                 height="100%" />
            </g>
          </g>
        </g>
        <g
           id="xtick_3">
          <g
             id="line2d_3">
            <g
               id="g39329">
              <use
                 style="stroke:#000000;stroke-width:0.8"
                 x="330.10129"
                 xlink:href="#m67a4bb546d"
                 y="252"
                 id="use39327"
                 width="100%"
                 height="100%" />
            </g>
          </g>
          <g
             id="text_3">
            <!-- pipecaster -->
            <defs
               id="defs39333">
              <path
                 d="m 18.109375,8.203125 v -29 H 9.078125 V 54.6875 h 9.03125 v -8.296875 q 2.84375,4.875 7.15625,7.234375 Q 29.59375,56 35.59375,56 q 9.96875,0 16.1875,-7.90625 6.234375,-7.90625 6.234375,-20.796875 0,-12.890625 -6.234375,-20.8125 -6.21875,-7.90625 -16.1875,-7.90625 -6,0 -10.328125,2.375 -4.3125,2.375 -7.15625,7.25 z M 48.6875,27.296875 q 0,9.90625 -4.078125,15.546875 -4.078125,5.640625 -11.203125,5.640625 -7.140625,0 -11.21875,-5.640625 -4.078125,-5.640625 -4.078125,-15.546875 0,-9.90625 4.078125,-15.546875 4.078125,-5.640625 11.21875,-5.640625 7.125,0 11.203125,5.640625 4.078125,5.640625 4.078125,15.546875 z"
                 id="DejaVuSans-112" />
            </defs>
            <g
               transform="matrix(0.1,0,0,-0.1,303.77708,266.59844)"
               id="g39355">
              <use
                 xlink:href="#DejaVuSans-112"
                 id="use39335"
                 x="0"
                 y="0"
                 width="100%"
                 height="100%" />
              <use
                 x="63.476562"
                 xlink:href="#DejaVuSans-105"
                 id="use39337"
                 y="0"
                 width="100%"
                 height="100%" />
              <use
                 x="91.259766"
                 xlink:href="#DejaVuSans-112"
                 id="use39339"
                 y="0"
                 width="100%"
                 height="100%" />
              <use
                 x="154.73633"
                 xlink:href="#DejaVuSans-101"
                 id="use39341"
                 y="0"
                 width="100%"
                 height="100%" />
              <use
                 x="216.25977"
                 xlink:href="#DejaVuSans-99"
                 id="use39343"
                 y="0"
                 width="100%"
                 height="100%" />
              <use
                 x="271.24023"
                 xlink:href="#DejaVuSans-97"
                 id="use39345"
                 y="0"
                 width="100%"
                 height="100%" />
              <use
                 x="332.51953"
                 xlink:href="#DejaVuSans-115"
                 id="use39347"
                 y="0"
                 width="100%"
                 height="100%" />
              <use
                 x="384.61914"
                 xlink:href="#DejaVuSans-116"
                 id="use39349"
                 y="0"
                 width="100%"
                 height="100%" />
              <use
                 x="423.82812"
                 xlink:href="#DejaVuSans-101"
                 id="use39351"
                 y="0"
                 width="100%"
                 height="100%" />
              <use
                 x="485.35156"
                 xlink:href="#DejaVuSans-114"
                 id="use39353"
                 y="0"
                 width="100%"
                 height="100%" />
            </g>
          </g>
        </g>
      </g>
      <g
         id="matplotlib.axis_2">
        <g
           id="ytick_1">
          <g
             id="line2d_4">
            <defs
               id="defs39361">
              <path
                 d="M 0,0 H -3.5"
                 id="m0d3e12a696"
                 style="stroke:#000000;stroke-width:0.8" />
            </defs>
            <g
               id="g39365">
              <use
                 style="stroke:#000000;stroke-width:0.8"
                 x="54"
                 xlink:href="#m0d3e12a696"
                 y="252"
                 id="use39363"
                 width="100%"
                 height="100%" />
            </g>
          </g>
          <g
             id="text_4">
            <!-- 0.50 -->
            <defs
               id="defs39371">
              <path
                 d="m 31.78125,66.40625 q -7.609375,0 -11.453125,-7.5 Q 16.5,51.421875 16.5,36.375 q 0,-14.984375 3.828125,-22.484375 3.84375,-7.5 11.453125,-7.5 7.671875,0 11.5,7.5 3.84375,7.5 3.84375,22.484375 0,15.046875 -3.84375,22.53125 -3.828125,7.5 -11.5,7.5 z m 0,7.8125 q 12.265625,0 18.734375,-9.703125 6.46875,-9.6875 6.46875,-28.140625 0,-18.40625 -6.46875,-28.109375 -6.46875,-9.6875 -18.734375,-9.6875 -12.25,0 -18.71875,9.6875 Q 6.59375,17.96875 6.59375,36.375 q 0,18.453125 6.46875,28.140625 6.46875,9.703125 18.71875,9.703125 z"
                 id="DejaVuSans-48" />
              <path
                 d="M 10.6875,12.40625 H 21 V 0 H 10.6875 Z"
                 id="DejaVuSans-46" />
              <path
                 d="m 10.796875,72.90625 h 38.71875 v -8.3125 h -29.6875 V 46.734375 q 2.140625,0.734375 4.28125,1.09375 2.15625,0.359375 4.3125,0.359375 Q 40.625,48.1875 47.75,41.5 54.890625,34.8125 54.890625,23.390625 54.890625,11.625 47.5625,5.09375 40.234375,-1.421875 26.90625,-1.421875 q -4.59375,0 -9.359375,0.78125 -4.75,0.78125 -9.828125,2.34375 V 11.625 q 4.390625,-2.390625 9.078125,-3.5625 4.6875,-1.171875 9.90625,-1.171875 8.453125,0 13.375,4.4375 4.9375,4.4375 4.9375,12.0625 0,7.609375 -4.9375,12.046875 -4.921875,4.453125 -13.375,4.453125 -3.953125,0 -7.890625,-0.875 -3.921875,-0.875 -8.015625,-2.734375 z"
                 id="DejaVuSans-53" />
            </defs>
            <g
               transform="matrix(0.1,0,0,-0.1,24.734375,255.79922)"
               id="g39381">
              <use
                 xlink:href="#DejaVuSans-48"
                 id="use39373"
                 x="0"
                 y="0"
                 width="100%"
                 height="100%" />
              <use
                 x="63.623047"
                 xlink:href="#DejaVuSans-46"
                 id="use39375"
                 y="0"
                 width="100%"
                 height="100%" />
              <use
                 x="95.410156"
                 xlink:href="#DejaVuSans-53"
                 id="use39377"
                 y="0"
                 width="100%"
                 height="100%" />
              <use
                 x="159.0332"
                 xlink:href="#DejaVuSans-48"
                 id="use39379"
                 y="0"
                 width="100%"
                 height="100%" />
            </g>
          </g>
        </g>
        <g
           id="ytick_2">
          <g
             id="line2d_5">
            <g
               id="g39387">
              <use
                 style="stroke:#000000;stroke-width:0.8"
                 x="54"
                 xlink:href="#m0d3e12a696"
                 y="218.48972"
                 id="use39385"
                 width="100%"
                 height="100%" />
            </g>
          </g>
          <g
             id="text_5">
            <!-- 0.55 -->
            <g
               transform="matrix(0.1,0,0,-0.1,24.734375,222.28894)"
               id="g39398">
              <use
                 xlink:href="#DejaVuSans-48"
                 id="use39390"
                 x="0"
                 y="0"
                 width="100%"
                 height="100%" />
              <use
                 x="63.623047"
                 xlink:href="#DejaVuSans-46"
                 id="use39392"
                 y="0"
                 width="100%"
                 height="100%" />
              <use
                 x="95.410156"
                 xlink:href="#DejaVuSans-53"
                 id="use39394"
                 y="0"
                 width="100%"
                 height="100%" />
              <use
                 x="159.0332"
                 xlink:href="#DejaVuSans-53"
                 id="use39396"
                 y="0"
                 width="100%"
                 height="100%" />
            </g>
          </g>
        </g>
        <g
           id="ytick_3">
          <g
             id="line2d_6">
            <g
               id="g39404">
              <use
                 style="stroke:#000000;stroke-width:0.8"
                 x="54"
                 xlink:href="#m0d3e12a696"
                 y="184.97943"
                 id="use39402"
                 width="100%"
                 height="100%" />
            </g>
          </g>
          <g
             id="text_6">
            <!-- 0.60 -->
            <defs
               id="defs39408">
              <path
                 d="m 33.015625,40.375 q -6.640625,0 -10.53125,-4.546875 -3.875,-4.53125 -3.875,-12.4375 0,-7.859375 3.875,-12.4375 3.890625,-4.5625 10.53125,-4.5625 6.640625,0 10.515625,4.5625 3.875,4.578125 3.875,12.4375 0,7.90625 -3.875,12.4375 Q 39.65625,40.375 33.015625,40.375 Z M 52.59375,71.296875 V 62.3125 q -3.71875,1.75 -7.5,2.671875 -3.78125,0.9375 -7.5,0.9375 -9.765625,0 -14.921875,-6.59375 -5.140625,-6.59375 -5.875,-19.921875 2.875,4.25 7.21875,6.515625 4.359375,2.265625 9.578125,2.265625 10.984375,0 17.359375,-6.671875 6.375,-6.65625 6.375,-18.125 0,-11.234375 -6.640625,-18.03125 -6.640625,-6.78125 -17.671875,-6.78125 -12.65625,0 -19.34375,9.6875 -6.6875,9.703125 -6.6875,28.109375 0,17.28125 8.203125,27.5625 8.203125,10.28125 22.015625,10.28125 3.71875,0 7.5,-0.734375 3.78125,-0.734375 7.890625,-2.1875 z"
                 id="DejaVuSans-54" />
            </defs>
            <g
               transform="matrix(0.1,0,0,-0.1,24.734375,188.77865)"
               id="g39418">
              <use
                 xlink:href="#DejaVuSans-48"
                 id="use39410"
                 x="0"
                 y="0"
                 width="100%"
                 height="100%" />
              <use
                 x="63.623047"
                 xlink:href="#DejaVuSans-46"
                 id="use39412"
                 y="0"
                 width="100%"
                 height="100%" />
              <use
                 x="95.410156"
                 xlink:href="#DejaVuSans-54"
                 id="use39414"
                 y="0"
                 width="100%"
                 height="100%" />
              <use
                 x="159.0332"
                 xlink:href="#DejaVuSans-48"
                 id="use39416"
                 y="0"
                 width="100%"
                 height="100%" />
            </g>
          </g>
        </g>
        <g
           id="ytick_4">
          <g
             id="line2d_7">
            <g
               id="g39424">
              <use
                 style="stroke:#000000;stroke-width:0.8"
                 x="54"
                 xlink:href="#m0d3e12a696"
                 y="151.46916"
                 id="use39422"
                 width="100%"
                 height="100%" />
            </g>
          </g>
          <g
             id="text_7">
            <!-- 0.65 -->
            <g
               transform="matrix(0.1,0,0,-0.1,24.734375,155.26837)"
               id="g39435">
              <use
                 xlink:href="#DejaVuSans-48"
                 id="use39427"
                 x="0"
                 y="0"
                 width="100%"
                 height="100%" />
              <use
                 x="63.623047"
                 xlink:href="#DejaVuSans-46"
                 id="use39429"
                 y="0"
                 width="100%"
                 height="100%" />
              <use
                 x="95.410156"
                 xlink:href="#DejaVuSans-54"
                 id="use39431"
                 y="0"
                 width="100%"
                 height="100%" />
              <use
                 x="159.0332"
                 xlink:href="#DejaVuSans-53"
                 id="use39433"
                 y="0"
                 width="100%"
                 height="100%" />
            </g>
          </g>
        </g>
        <g
           id="ytick_5">
          <g
             id="line2d_8">
            <g
               id="g39441">
              <use
                 style="stroke:#000000;stroke-width:0.8"
                 x="54"
                 xlink:href="#m0d3e12a696"
                 y="117.95887"
                 id="use39439"
                 width="100%"
                 height="100%" />
            </g>
          </g>
          <g
             id="text_8">
            <!-- 0.70 -->
            <defs
               id="defs39445">
              <path
                 d="m 8.203125,72.90625 h 46.875 V 68.703125 L 28.609375,0 H 18.3125 L 43.21875,64.59375 H 8.203125 Z"
                 id="DejaVuSans-55" />
            </defs>
            <g
               transform="matrix(0.1,0,0,-0.1,24.734375,121.75809)"
               id="g39455">
              <use
                 xlink:href="#DejaVuSans-48"
                 id="use39447"
                 x="0"
                 y="0"
                 width="100%"
                 height="100%" />
              <use
                 x="63.623047"
                 xlink:href="#DejaVuSans-46"
                 id="use39449"
                 y="0"
                 width="100%"
                 height="100%" />
              <use
                 x="95.410156"
                 xlink:href="#DejaVuSans-55"
                 id="use39451"
                 y="0"
                 width="100%"
                 height="100%" />
              <use
                 x="159.0332"
                 xlink:href="#DejaVuSans-48"
                 id="use39453"
                 y="0"
                 width="100%"
                 height="100%" />
            </g>
          </g>
        </g>
        <g
           id="ytick_6">
          <g
             id="line2d_9">
            <g
               id="g39461">
              <use
                 style="stroke:#000000;stroke-width:0.8"
                 x="54"
                 xlink:href="#m0d3e12a696"
                 y="84.448593"
                 id="use39459"
                 width="100%"
                 height="100%" />
            </g>
          </g>
          <g
             id="text_9">
            <!-- 0.75 -->
            <g
               transform="matrix(0.1,0,0,-0.1,24.734375,88.24781)"
               id="g39472">
              <use
                 xlink:href="#DejaVuSans-48"
                 id="use39464"
                 x="0"
                 y="0"
                 width="100%"
                 height="100%" />
              <use
                 x="63.623047"
                 xlink:href="#DejaVuSans-46"
                 id="use39466"
                 y="0"
                 width="100%"
                 height="100%" />
              <use
                 x="95.410156"
                 xlink:href="#DejaVuSans-55"
                 id="use39468"
                 y="0"
                 width="100%"
                 height="100%" />
              <use
                 x="159.0332"
                 xlink:href="#DejaVuSans-53"
                 id="use39470"
                 y="0"
                 width="100%"
                 height="100%" />
            </g>
          </g>
        </g>
        <g
           id="ytick_7">
          <g
             id="line2d_10">
            <g
               id="g39478">
              <use
                 style="stroke:#000000;stroke-width:0.8"
                 x="54"
                 xlink:href="#m0d3e12a696"
                 y="50.938309"
                 id="use39476"
                 width="100%"
                 height="100%" />
            </g>
          </g>
          <g
             id="text_10">
            <!-- 0.80 -->
            <defs
               id="defs39482">
              <path
                 d="m 31.78125,34.625 q -7.03125,0 -11.0625,-3.765625 -4.015625,-3.765625 -4.015625,-10.34375 0,-6.59375 4.015625,-10.359375 4.03125,-3.765625 11.0625,-3.765625 7.03125,0 11.078125,3.78125 4.0625,3.796875 4.0625,10.34375 0,6.578125 -4.03125,10.34375 Q 38.875,34.625 31.78125,34.625 Z m -9.859375,4.1875 Q 15.578125,40.375 12.03125,44.71875 8.5,49.078125 8.5,55.328125 q 0,8.734375 6.21875,13.8125 6.234375,5.078125 17.0625,5.078125 10.890625,0 17.09375,-5.078125 6.203125,-5.078125 6.203125,-13.8125 0,-6.25 -3.546875,-10.609375 Q 48,40.375 41.703125,38.8125 q 7.125,-1.65625 11.09375,-6.5 3.984375,-4.828125 3.984375,-11.796875 0,-10.609375 -6.46875,-16.28125 -6.46875,-5.65625 -18.53125,-5.65625 -12.046875,0 -18.53125,5.65625 -6.46875,5.671875 -6.46875,16.28125 0,6.96875 4,11.796875 4.015625,4.84375 11.140625,6.5 z M 18.3125,54.390625 q 0,-5.65625 3.53125,-8.828125 3.546875,-3.171875 9.9375,-3.171875 6.359375,0 9.9375,3.171875 3.59375,3.171875 3.59375,8.828125 0,5.671875 -3.59375,8.84375 -3.578125,3.171875 -9.9375,3.171875 -6.390625,0 -9.9375,-3.171875 Q 18.3125,60.0625 18.3125,54.390625 Z"
                 id="DejaVuSans-56" />
            </defs>
            <g
               transform="matrix(0.1,0,0,-0.1,24.734375,54.737529)"
               id="g39492">
              <use
                 xlink:href="#DejaVuSans-48"
                 id="use39484"
                 x="0"
                 y="0"
                 width="100%"
                 height="100%" />
              <use
                 x="63.623047"
                 xlink:href="#DejaVuSans-46"
                 id="use39486"
                 y="0"
                 width="100%"
                 height="100%" />
              <use
                 x="95.410156"
                 xlink:href="#DejaVuSans-56"
                 id="use39488"
                 y="0"
                 width="100%"
                 height="100%" />
              <use
                 x="159.0332"
                 xlink:href="#DejaVuSans-48"
                 id="use39490"
                 y="0"
                 width="100%"
                 height="100%" />
            </g>
          </g>
        </g>
        <g
           id="text_11">
          <!-- balanced accuracy -->
          <defs
             id="defs39500">
            <path
               d="m 48.6875,27.296875 q 0,9.90625 -4.078125,15.546875 -4.078125,5.640625 -11.203125,5.640625 -7.140625,0 -11.21875,-5.640625 -4.078125,-5.640625 -4.078125,-15.546875 0,-9.90625 4.078125,-15.546875 4.078125,-5.640625 11.21875,-5.640625 7.125,0 11.203125,5.640625 4.078125,5.640625 4.078125,15.546875 z m -30.578125,19.09375 q 2.84375,4.875 7.15625,7.234375 Q 29.59375,56 35.59375,56 q 9.96875,0 16.1875,-7.90625 6.234375,-7.90625 6.234375,-20.796875 0,-12.890625 -6.234375,-20.8125 -6.21875,-7.90625 -16.1875,-7.90625 -6,0 -10.328125,2.375 -4.3125,2.375 -7.15625,7.25 V 0 h -9.03125 v 75.984375 h 9.03125 z"
               id="DejaVuSans-98" />
            <path
               d="m 45.40625,46.390625 v 29.59375 h 8.984375 V 0 H 45.40625 v 8.203125 q -2.828125,-4.875 -7.15625,-7.25 -4.3125,-2.375 -10.375,-2.375 -9.90625,0 -16.140625,7.90625 -6.21875,7.921875 -6.21875,20.8125 0,12.890625 6.21875,20.796875 Q 17.96875,56 27.875,56 q 6.0625,0 10.375,-2.375 4.328125,-2.359375 7.15625,-7.234375 z M 14.796875,27.296875 q 0,-9.90625 4.078125,-15.546875 4.078125,-5.640625 11.203125,-5.640625 7.125,0 11.21875,5.640625 4.109375,5.640625 4.109375,15.546875 0,9.90625 -4.109375,15.546875 -4.09375,5.640625 -11.21875,5.640625 -7.125,0 -11.203125,-5.640625 -4.078125,-5.640625 -4.078125,-15.546875 z"
               id="DejaVuSans-100" />
            <path
               d="M 8.5,21.578125 V 54.6875 h 8.984375 V 21.921875 q 0,-7.765625 3.015625,-11.65625 3.03125,-3.875 9.09375,-3.875 7.265625,0 11.484375,4.640625 4.234375,4.640625 4.234375,12.65625 v 31 h 8.984375 V 0 H 45.3125 V 8.40625 Q 42.046875,3.421875 37.71875,1 33.40625,-1.421875 27.6875,-1.421875 18.265625,-1.421875 13.375,4.4375 8.5,10.296875 8.5,21.578125 Z M 31.109375,56 Z"
               id="DejaVuSans-117" />
            <path
               d="M 32.171875,-5.078125 Q 28.375,-14.84375 24.75,-17.8125 q -3.609375,-2.984375 -9.65625,-2.984375 h -7.1875 v 7.515625 h 5.28125 q 3.703125,0 5.75,1.765625 2.0625,1.75 4.546875,8.296875 L 25.09375,0.875 2.984375,54.6875 H 12.5 L 29.59375,11.921875 46.6875,54.6875 h 9.515625 z"
               id="DejaVuSans-121" />
          </defs>
          <g
             transform="matrix(0,-0.1,-0.1,0,18.654687,190.28859)"
             id="g39536">
            <use
               xlink:href="#DejaVuSans-98"
               id="use39502"
               x="0"
               y="0"
               width="100%"
               height="100%" />
            <use
               x="63.476562"
               xlink:href="#DejaVuSans-97"
               id="use39504"
               y="0"
               width="100%"
               height="100%" />
            <use
               x="124.75586"
               xlink:href="#DejaVuSans-108"
               id="use39506"
               y="0"
               width="100%"
               height="100%" />
            <use
               x="152.53906"
               xlink:href="#DejaVuSans-97"
               id="use39508"
               y="0"
               width="100%"
               height="100%" />
            <use
               x="213.81836"
               xlink:href="#DejaVuSans-110"
               id="use39510"
               y="0"
               width="100%"
               height="100%" />
            <use
               x="277.19727"
               xlink:href="#DejaVuSans-99"
               id="use39512"
               y="0"
               width="100%"
               height="100%" />
            <use
               x="332.17773"
               xlink:href="#DejaVuSans-101"
               id="use39514"
               y="0"
               width="100%"
               height="100%" />
            <use
               x="393.70117"
               xlink:href="#DejaVuSans-100"
               id="use39516"
               y="0"
               width="100%"
               height="100%" />
            <use
               x="457.17773"
               xlink:href="#DejaVuSans-32"
               id="use39518"
               y="0"
               width="100%"
               height="100%" />
            <use
               x="488.96484"
               xlink:href="#DejaVuSans-97"
               id="use39520"
               y="0"
               width="100%"
               height="100%" />
            <use
               x="550.24414"
               xlink:href="#DejaVuSans-99"
               id="use39522"
               y="0"
               width="100%"
               height="100%" />
            <use
               x="605.22461"
               xlink:href="#DejaVuSans-99"
               id="use39524"
               y="0"
               width="100%"
               height="100%" />
            <use
               x="660.20508"
               xlink:href="#DejaVuSans-117"
               id="use39526"
               y="0"
               width="100%"
               height="100%" />
            <use
               x="723.58398"
               xlink:href="#DejaVuSans-114"
               id="use39528"
               y="0"
               width="100%"
               height="100%" />
            <use
               x="764.69727"
               xlink:href="#DejaVuSans-97"
               id="use39530"
               y="0"
               width="100%"
               height="100%" />
            <use
               x="825.97656"
               xlink:href="#DejaVuSans-99"
               id="use39532"
               y="0"
               width="100%"
               height="100%" />
            <use
               x="880.95703"
               xlink:href="#DejaVuSans-121"
               id="use39534"
               y="0"
               width="100%"
               height="100%" />
          </g>
        </g>
      </g>
      <g
         id="LineCollection_1">
        <path
           clip-path="url(#p0c4ea28e98)"
           d="M 112.6987,156.24569 V 133.2885"
           style="fill:none;stroke:#000000;stroke-width:1.5"
           id="path39540" />
        <path
           clip-path="url(#p0c4ea28e98)"
           d="M 221.4,158.799 V 120.01191"
           style="fill:none;stroke:#000000;stroke-width:1.5"
           id="path39542" />
        <path
           clip-path="url(#p0c4ea28e98)"
           d="M 330.1013,83.898218 V 60.871563"
           style="fill:none;stroke:#000000;stroke-width:1.5"
           id="path39544" />
      </g>
      <g
         id="line2d_11">
        <defs
           id="defs39548">
          <path
             d="M 10,0 H -10"
             id="mfe56f7b1d1"
             style="stroke:#000000" />
        </defs>
        <g
           clip-path="url(#p0c4ea28e98)"
           id="g39556">
          <use
             style="stroke:#000000"
             x="112.6987"
             xlink:href="#mfe56f7b1d1"
             y="156.2457"
             id="use39550"
             width="100%"
             height="100%" />
          <use
             style="stroke:#000000"
             x="221.39999"
             xlink:href="#mfe56f7b1d1"
             y="158.799"
             id="use39552"
             width="100%"
             height="100%" />
          <use
             style="stroke:#000000"
             x="330.10129"
             xlink:href="#mfe56f7b1d1"
             y="83.898216"
             id="use39554"
             width="100%"
             height="100%" />
        </g>
      </g>
      <g
         id="line2d_12">
        <g
           clip-path="url(#p0c4ea28e98)"
           id="g39565">
          <use
             style="stroke:#000000"
             x="112.6987"
             xlink:href="#mfe56f7b1d1"
             y="133.2885"
             id="use39559"
             width="100%"
             height="100%" />
          <use
             style="stroke:#000000"
             x="221.39999"
             xlink:href="#mfe56f7b1d1"
             y="120.01191"
             id="use39561"
             width="100%"
             height="100%" />
          <use
             style="stroke:#000000"
             x="330.10129"
             xlink:href="#mfe56f7b1d1"
             y="60.871563"
             id="use39563"
             width="100%"
             height="100%" />
        </g>
      </g>
      <g
         id="patch_6">
        <path
           d="M 54,252 V 34.56"
           style="fill:none;stroke:#000000;stroke-width:0.8;stroke-linecap:square;stroke-linejoin:miter"
           id="path39568" />
      </g>
      <g
         id="patch_7">
        <path
           d="M 388.8,252 V 34.56"
           style="fill:none;stroke:#000000;stroke-width:0.8;stroke-linecap:square;stroke-linejoin:miter"
           id="path39571" />
      </g>
      <g
         id="patch_8">
        <path
           d="M 54,252 H 388.8"
           style="fill:none;stroke:#000000;stroke-width:0.8;stroke-linecap:square;stroke-linejoin:miter"
           id="path39574" />
      </g>
      <g
         id="patch_9">
        <path
           d="M 54,34.56 H 388.8"
           style="fill:none;stroke:#000000;stroke-width:0.8;stroke-linecap:square;stroke-linejoin:miter"
           id="path39577" />
      </g>
    </g>
  </g>
  <defs
     id="defs39585">
    <clipPath
       id="p0c4ea28e98">
      <rect
         height="217.44"
         width="334.79999"
         x="54"
         y="34.560001"
         id="rect39582" />
    </clipPath>
  </defs>
</svg>
